<?xml version="1.0" encoding="utf-8"?>
<svg xmlns="http://www.w3.org/2000/svg" data-name="Layer 2" viewBox="0 0 300 375" x="0px" y="0px" xmlns:bx="https://boxy-svg.com" width="300px" height="375px"><defs><bx:export><bx:file format="svg"/></bx:export></defs><path d="M119.7,132.36c44.05-11.99,79.54-46.48,124.6-54.22,9.13-1.56,18.46-1.94,27.7-1.18l.12-.04c-2.24-6.57-5-12.91-8.23-18.96-8.89-.76-17.87-.38-26.65,1.18-26.75,4.77-49.99,19.68-73.82,33.23-27.05-14.66-52.71-32.87-82.8-38.23-14.22-2.53-28.98-1.96-43,1.54l-.2-.11c-2.34,4.16-4.45,8.47-6.31,12.9l.51,.21c14.02-3.5,28.78-4.07,43-1.54,26.65,4.75,49.82,19.57,73.55,33.08l.19,.37c-10.05,5.18-20.36,9.71-31.2,12.77-31.17,8.8-65.84,4.42-93.86-11.85l-1.16-.16c-.75,5.64-1.14,11.39-1.14,17.23,0,.65,0,1.29,.02,1.94h1.28c29.07,16.26,65.05,20.64,97.4,11.84Z" style="fill: rgb(255, 255, 255);"/><path d="M27.35,158.63c2.11,6.47,4.71,12.71,7.77,18.69,39.12-4.12,114.55-4.65,199.48,38.65,5.01-4.36,9.68-9.11,13.97-14.19-98.05-53.93-185.2-48.2-221.22-43.15Z" style="fill: rgb(255, 255, 255);"/><circle cx="234.5" cy="124.08" r="14.5" style="fill: rgb(255, 255, 255);"/><circle cx="102.52" cy="201.07" r="17.52" style="fill: rgb(255, 255, 255);"/><circle cx="225.37" cy="164.46" r="9.13" transform="translate(-50.28 207.53) rotate(-45)" style="fill: rgb(255, 255, 255);"/><path d="M79.15,89.63c0-8.26-6.7-14.95-14.95-14.95s-14.95,6.7-14.95,14.95,6.7,14.95,14.95,14.95,14.95-6.7,14.95-14.95Z" style="fill: rgb(255, 255, 255);"/><circle cx="102.37" cy="95.46" r="9.13" transform="translate(-37.51 100.35) rotate(-45)" style="fill: rgb(255, 255, 255);"/><circle cx="163.37" cy="217.46" r="9.13" transform="translate(-105.91 179.21) rotate(-45)" style="fill: rgb(255, 255, 255);"/><circle cx="131.37" cy="226.46" r="9.13" transform="translate(-121.65 159.22) rotate(-45)" style="fill: rgb(255, 255, 255);"/><circle cx="185.76" cy="139.82" r="22.76" transform="translate(-39.37 81.73) rotate(-22.5)" style="fill: rgb(255, 255, 255);"/><path d="M265.21,57.25c-.03-.06-.07-.11-.11-.16-.02-.03-.04-.06-.06-.08-.02-.03-.05-.05-.08-.08-.18-.19-.4-.32-.64-.4,0,0-.02,0-.03,0-.09-.02-.18-.04-.27-.05,0,0,0,0,0,0-9.1-.78-18.19-.38-27.04,1.2-23.73,4.23-44.99,16.51-65.56,28.38-2.67,1.54-5.34,3.08-8.02,4.6-5.7-3.11-11.42-6.41-16.97-9.61-20.57-11.88-41.83-24.15-65.55-28.38-14.99-2.67-30.07-2.28-43.64,1.1,0,0-.01,0-.02,0-.05,.01-.09,.03-.13,.05-.05,.02-.1,.03-.15,.06-.03,.02-.07,.04-.1,.06-.05,.03-.1,.06-.15,.09-.03,.02-.06,.05-.08,.08-.04,.04-.09,.08-.13,.12-.02,.03-.04,.06-.07,.09-.04,.05-.08,.1-.11,.15,0,0,0,0-.01,.02-8.19,14.48-13.45,30.18-15.65,46.67-.76,5.75-1.15,11.62-1.15,17.43,0,13.84,2.16,27.47,6.42,40.52,0,0,0,0,0,0,2.12,6.49,4.76,12.85,7.86,18.91,22.46,43.84,66.99,71.08,116.21,71.08,31.47,0,61.86-11.36,85.58-31.98,5.03-4.38,9.79-9.21,14.13-14.35,0,0,0,0,0,0,19.85-23.49,30.78-53.38,30.78-84.16,0-21.38-5.29-42.58-15.29-61.33,0,0,0,0,0,0Zm-226.6-.72c12.99-3.14,27.41-3.46,41.75-.91,23.2,4.13,44.24,16.28,64.58,28.02,5.03,2.91,10.22,5.89,15.4,8.75-15.48,8.73-28.99,15.4-43.59,19.53-30.56,8.63-65.22,4.25-92.7-11.7-.07-.04-.14-.07-.22-.1,2.22-15.37,7.19-30.02,14.77-43.59ZM233.62,214.84c-23.17,20.15-52.87,31.24-83.62,31.24-48.09,0-91.6-26.61-113.54-69.44-2.75-5.38-5.14-11.02-7.11-16.77,42.63-5.71,125.7-7.26,216.88,42.34-3.92,4.51-8.16,8.75-12.61,12.63Zm14.59-14.96c-92.52-50.51-176.87-48.73-219.79-42.9-3.91-12.39-5.91-25.29-5.91-38.39,0-5.09,.32-10.22,.92-15.28,18.46,10.5,39.98,15.97,61.38,15.97,11.1,0,22.17-1.47,32.76-4.46,15.55-4.39,29.79-11.57,46.35-20.99,.2-.06,.38-.17,.53-.3,2.83-1.61,5.65-3.24,8.47-4.86,20.34-11.74,41.37-23.89,64.58-28.03,8.32-1.48,16.88-1.88,25.44-1.22,9.52,18.13,14.56,38.57,14.56,59.18,0,29.67-10.4,58.49-29.3,81.29Z" style="fill: rgb(255, 255, 255);"/><path d="M234.5,109.08c-8.27,0-15,6.73-15,15s6.73,15,15,15,15-6.73,15-15-6.73-15-15-15Zm0,26c-6.07,0-11-4.93-11-11s4.93-11,11-11,11,4.93,11,11-4.93,11-11,11Z" style="fill: rgb(255, 255, 255);"/><path d="M102.52,219.08c9.94,0,18.02-8.08,18.02-18.02s-8.08-18.02-18.02-18.02-18.02,8.08-18.02,18.02,8.08,18.02,18.02,18.02Zm0-32.04c7.73,0,14.02,6.29,14.02,14.02s-6.29,14.02-14.02,14.02-14.02-6.29-14.02-14.02,6.29-14.02,14.02-14.02Z" style="fill: rgb(255, 255, 255);"/><path d="M225.37,154.83c-5.31,0-9.63,4.32-9.63,9.63s4.32,9.63,9.63,9.63,9.63-4.32,9.63-9.63-4.32-9.63-9.63-9.63Zm0,15.26c-3.1,0-5.63-2.52-5.63-5.63s2.52-5.63,5.63-5.63,5.63,2.52,5.63,5.63-2.52,5.63-5.63,5.63Z" style="fill: rgb(255, 255, 255);"/><path d="M64.2,105.08c8.52,0,15.45-6.93,15.45-15.45s-6.93-15.45-15.45-15.45-15.45,6.93-15.45,15.45,6.93,15.45,15.45,15.45Zm0-26.91c6.32,0,11.45,5.14,11.45,11.45s-5.14,11.45-11.45,11.45-11.45-5.14-11.45-11.45,5.14-11.45,11.45-11.45Z" style="fill: rgb(255, 255, 255);"/><path d="M102.37,105.08c5.31,0,9.63-4.32,9.63-9.63s-4.32-9.63-9.63-9.63-9.63,4.32-9.63,9.63,4.32,9.63,9.63,9.63Zm0-15.26c3.1,0,5.63,2.52,5.63,5.63s-2.52,5.63-5.63,5.63-5.63-2.52-5.63-5.63,2.52-5.63,5.63-5.63Z" style="fill: rgb(255, 255, 255);"/><path d="M163.37,227.08c5.31,0,9.63-4.32,9.63-9.63s-4.32-9.63-9.63-9.63-9.63,4.32-9.63,9.63,4.32,9.63,9.63,9.63Zm0-15.26c3.1,0,5.63,2.52,5.63,5.63s-2.52,5.63-5.63,5.63-5.63-2.52-5.63-5.63,2.52-5.63,5.63-5.63Z" style="fill: rgb(255, 255, 255);"/><path d="M131.37,236.08c5.31,0,9.63-4.32,9.63-9.63s-4.32-9.63-9.63-9.63-9.63,4.32-9.63,9.63,4.32,9.63,9.63,9.63Zm0-15.26c3.1,0,5.63,2.52,5.63,5.63s-2.52,5.63-5.63,5.63-5.63-2.52-5.63-5.63,2.52-5.63,5.63-5.63Z" style="fill: rgb(255, 255, 255);"/><path d="M185.76,116.56c-12.83,0-23.26,10.43-23.26,23.26s10.43,23.26,23.26,23.26,23.26-10.43,23.26-23.26-10.43-23.26-23.26-23.26Zm0,42.52c-10.62,0-19.26-8.64-19.26-19.26s8.64-19.26,19.26-19.26,19.26,8.64,19.26,19.26-8.64,19.26-19.26,19.26Z" style="fill: rgb(255, 255, 255);"/></svg>